<svg width="251" height="256" viewBox="0 0 251 256" fill="none" xmlns="http://www.w3.org/2000/svg">
<path d="M210.521 150.441C199.799 146.75 186.51 140.179 186.39 127.034C186.321 118.114 191.44 109.887 193.898 101.517C198.624 85.4169 192.518 67.7832 182.231 55.2054C171.673 42.28 156.199 33.1547 139.694 30.4098C131.587 29.0489 123.207 29.2837 115.258 31.3992C107.276 33.5158 99.6439 37.4672 92.5872 41.708C76.8854 51.1793 62.936 63.8658 51.6816 78.3284C40.6298 92.5418 31.6902 109.052 28.3629 126.905C26.8397 135.147 26.4944 143.773 27.9684 152.065C29.754 162.032 34.6564 171.219 41.0839 178.948C54.2413 194.754 73.8897 205.317 93.787 209.865C113.634 214.365 134.037 209.213 148.428 194.586C155.945 186.946 160.962 177.556 165.832 168.123C168.306 163.348 171.239 158.251 176.657 156.491C181.995 154.75 187.489 156.454 192.43 158.579C196.682 160.435 200.721 162.752 204.972 164.576C205.727 164.908 206.449 164.674 206.913 163.979C208.967 160.789 211.419 157.909 212.697 154.274C213.291 152.538 210.502 151.899 209.908 153.634C208.75 156.974 206.277 159.709 204.394 162.651C205.051 162.452 205.677 162.254 206.334 162.055C198.407 158.664 190.568 152.906 181.598 152.933C170.443 152.981 165.847 161.855 161.377 170.629C156.601 179.962 150.874 188.938 142.882 195.88C135.252 202.503 125.802 206.853 115.788 208.16C95.2753 210.854 73.3178 202.048 57.0386 189.969C48.7165 183.79 41.3527 176.155 36.3552 167.036C31.6838 158.505 29.7067 149.144 29.9049 139.438C30.2537 121.615 37.4407 104.464 47.034 89.6982C57.0913 74.2373 70.2996 60.6353 85.2825 49.9239C98.6978 40.3473 114.207 31.9832 131.11 32.4322C147.949 32.8833 164.355 40.7482 176.096 52.6806C187.486 64.284 195.449 81.7451 191.739 98.2344C189.849 106.666 185.149 114.281 183.798 122.874C182.343 132.247 186.801 140.671 194.465 146.013C199.133 149.265 204.446 151.395 209.798 153.216C211.631 153.838 212.256 151.033 210.521 150.441Z" fill="#E1D4DB"/>
<path d="M200.642 151.435C194.565 148.682 188.228 146.439 182.409 143.143C179.574 141.549 176.891 139.659 174.584 137.336C172.008 134.698 170.287 131.449 168.55 128.217C163.129 117.978 160.246 106.573 154.155 96.6793C142.778 78.2421 121.45 66.7934 100.159 64.8002C88.2716 63.6894 76.2526 65.627 65.539 70.9883C63.881 71.8184 65.3982 74.2475 67.0406 73.4341C86.4118 63.7649 109.969 66.2526 128.525 76.5751C138.396 82.0737 146.948 89.8813 152.631 99.7074C158.297 109.485 161.122 120.585 166.533 130.5C169.866 136.612 173.768 141.281 179.777 144.943C185.917 148.666 192.776 151.022 199.296 153.972C200.972 154.728 202.334 152.207 200.642 151.435Z" fill="#E1D4DB"/>
<path d="M168.208 143.158C135.275 138.055 100.153 137.523 69.8746 122.068C61.0876 117.588 53.0865 111.835 46.2263 104.767C44.9543 103.447 42.9956 105.534 44.2675 106.853C69.0624 132.328 105.675 138.059 139.373 142.248C148.786 143.421 158.21 144.481 167.583 145.931C169.373 146.23 170.015 143.441 168.208 143.158Z" fill="#E1D4DB"/>
<path d="M151.802 125.464C131.331 99.9976 98.0951 86.7911 66.1495 84.2793C64.315 84.1273 64.4208 86.99 66.2386 87.1264C97.0478 89.5449 129.608 102.368 149.354 126.935C150.484 128.372 152.932 126.902 151.802 125.464Z" fill="#E1D4DB"/>
<path d="M123.723 119.202C110.452 117.358 98.0458 111.584 86.9048 104.329C85.3675 103.325 84.022 105.862 85.5593 106.866C96.8817 114.229 109.583 120.123 123.081 121.992C124.887 122.242 125.56 119.452 123.723 119.202Z" fill="#E1D4DB"/>
<path d="M157.578 154.816C143.364 159.025 128.736 162.471 113.827 162.072C97.863 161.625 83.1532 156.232 69.0672 149.038C59.2433 144.024 49.2429 138.028 43.387 128.385C42.4305 126.796 39.9839 128.299 40.9404 129.888C46.0273 138.243 54.0951 144.059 62.4854 148.795C70.2979 153.177 78.5021 157.142 86.9964 160.029C101.367 164.947 116.46 166.02 131.467 163.841C140.606 162.498 149.554 160.221 158.394 157.591C160.158 157.049 159.344 154.306 157.578 154.816Z" fill="#E1D4DB"/>
<path d="M152.962 166.152C142.668 177.653 129.144 185.84 113.896 188.61C96.5549 191.737 78.9583 187.748 64.8326 177.219C56.3103 170.852 49.0522 162.971 41.3271 155.687C39.9924 154.434 38.017 156.505 39.3683 157.774C53.7343 171.323 67.3167 186.742 87.5441 190.972C103.077 194.217 119.336 192.209 133.489 184.989C141.682 180.81 148.931 174.96 155.064 168.125C156.283 166.726 154.198 164.768 152.962 166.152Z" fill="#E1D4DB"/>
<path d="M107.826 174.716C97.6823 174.991 87.4768 172.79 79.4211 166.327C77.9925 165.174 76.0337 167.26 77.4624 168.413C86.1166 175.375 96.9636 177.896 107.9 177.58C109.761 177.537 109.67 174.657 107.826 174.716Z" fill="#E1D4DB"/>
<path d="M133.517 150.693C121.157 150.52 108.99 148.268 97 145.428C95.2054 145 94.5641 147.789 96.3587 148.218C108.578 151.115 121.004 153.391 133.591 153.556C135.453 153.578 135.364 150.731 133.517 150.693Z" fill="#E1D4DB"/>
<path d="M70.6234 136.148C64.282 133.241 58.0231 130.38 53.3226 125.057C52.0976 123.687 50.1389 125.773 51.3638 127.143C56.2322 132.655 62.755 135.67 69.3102 138.683C70.9532 139.441 72.3154 136.92 70.6234 136.148Z" fill="#E1D4DB"/>
<path d="M66.8924 103.347C60.9524 100.848 55.3178 97.757 49.3622 95.275C47.6722 94.5678 46.3267 97.1044 48.0167 97.8116C53.9566 100.31 59.5912 103.402 65.5468 105.884C67.2525 106.574 68.599 104.07 66.8924 103.347Z" fill="#E1D4DB"/>
<path d="M179.672 115.2C176.4 101.702 174.075 87.4295 165.382 76.1287C156.233 64.2433 142.637 55.6248 128.13 52.0552C119.693 49.9762 110.935 49.5105 102.294 50.2231C100.453 50.3789 100.542 53.226 102.383 53.0702C121.91 51.46 140.29 56.6874 155.186 69.5717C161.943 75.4125 167.071 82.5196 170.232 90.8877C173.287 99.0001 174.868 107.613 176.929 116.016C177.374 117.815 180.1 116.984 179.672 115.2Z" fill="#E1D4DB"/>
<path d="M180.501 77.0395C176.78 70.4057 173.071 63.6581 168.033 57.8921C162.893 51.9998 156.416 47.8343 148.943 45.5302C147.194 44.9868 146.553 47.7762 148.302 48.3196C155.546 50.5662 161.652 54.7598 166.545 60.5466C171.168 65.9858 174.574 72.3543 178.055 78.5424C178.963 80.1489 181.394 78.6627 180.501 77.0395Z" fill="#E1D4DB"/>
</svg>
