<svg width="206" height="292" viewBox="0 0 206 292" fill="none" xmlns="http://www.w3.org/2000/svg">
<path d="M250.27 -47.9992C267.401 -22.1862 280.697 6.39135 293.918 34.374C299.671 46.5391 305.005 58.9836 309.179 71.8009C313.044 83.7353 316.335 96.4976 315.786 109.124C315.535 115.139 314.683 124.177 308.125 126.786C303.22 128.733 297.184 126.758 292.386 125.368C283.915 122.884 269.972 116.676 264.104 126.89C260.923 132.443 261.603 139.248 262.82 145.29C264.486 153.452 267.295 161.333 269.454 169.327C271.538 177.088 273.726 185.91 271.562 193.889C269.353 201.979 261.404 207.453 253.104 207.516C243.548 207.571 234.867 201.033 227.497 195.675C220.556 190.595 213.511 184.577 205.178 182C196.66 179.385 189.211 183.073 182.992 188.843C174.767 196.437 168.758 206.139 162.023 214.996C155.25 223.918 148.076 231.334 137.849 236.234C129.973 240.006 116.808 244.61 109.9 236.686C102.423 228.092 106.092 213.26 108.894 203.523C112.483 191.043 117.689 179.054 122.514 167.038C124.431 162.248 126.302 157.449 127.922 152.576C128.357 151.237 126.951 150.039 125.734 150.086C117.108 150.447 108.276 149.172 99.9169 147.096C91.7436 145.058 81.5981 141.878 76.2525 134.845C69.9664 126.585 76.8212 116.761 83.5801 111.316C92.3907 104.177 103.232 99.8352 113.226 94.6479C123.378 89.3954 134.82 82.8773 139.07 71.5681C139.477 70.4893 139.197 69.3459 138.08 68.7612C126.704 62.6535 114.112 58.1646 103.931 50.0476C100.069 46.9829 95.5454 42.6264 95.9094 37.2615C96.4282 29.6559 105.408 24.0976 111.288 20.8941C121.393 15.3906 132.645 12.7497 143.665 9.82072C151.423 7.74065 163.496 6.68881 165.945 -2.85237C166.5 -5.03771 165.652 -6.12473 164.349 -7.71344C162.105 -10.5286 163.038 -14.2576 163.098 -17.7256C163.105 -19.585 162.701 -22.5412 163.758 -24.2157C164.908 -26.1133 168.309 -26.8136 170.25 -27.4661C182.393 -31.6697 195.003 -34.2096 207.416 -37.586C214.291 -39.4794 221.391 -40.6756 228.332 -42.411C235.728 -44.249 243.087 -46.2636 250.446 -48.2783C253.029 -48.9964 251.712 -52.9559 249.111 -52.2657C235.898 -48.6375 222.639 -45.2603 209.249 -42.32C202.884 -40.9291 196.604 -38.9898 190.285 -37.4688C183.967 -35.9479 177.639 -34.3804 171.47 -32.2738C166.964 -30.7545 160.571 -29.4658 159.287 -24.0909C158.65 -21.3662 158.942 -18.3355 158.872 -15.5463C158.821 -12.1248 158.185 -8.67498 160.392 -5.79475C160.792 -5.25586 161.89 -4.57812 161.91 -3.94592C162.034 -1.40786 157.428 1.71075 155.58 2.38178C150.284 4.34812 144.355 5.36672 138.873 6.81259C127.148 9.89092 115.283 13.1832 104.956 19.8026C99.3935 23.359 93.1364 28.7104 91.8729 35.5636C90.9137 40.7617 93.3745 45.529 96.8099 49.2821C107.116 60.5415 123.055 65.576 136.19 72.5654C135.844 71.6267 135.546 70.6972 135.2 69.7585C130.83 81.4304 118.095 87.522 107.655 92.7655C96.9923 98.1579 85.0366 103.003 76.7025 111.88C70.8464 118.133 66.8629 127.368 71.5222 135.425C76.051 143.287 85.7329 147.22 93.972 149.779C104.118 152.959 115.218 154.735 125.87 154.27C125.144 153.424 124.436 152.607 123.682 151.78C119.693 163.842 114.31 175.385 109.847 187.28C105.763 198.236 101.421 210.01 101.392 221.845C101.378 231.533 104.749 242.064 115.172 244.575C124.833 246.909 135.47 242.502 143.745 237.818C153.701 232.213 160.623 223.755 167.33 214.675C173.972 205.679 180.361 195.037 189.73 188.614C198.348 182.694 206.681 186.359 214.571 191.651C222.777 197.176 230.307 203.919 239.283 208.244C247.552 212.235 256.542 213.082 264.752 208.482C271.708 204.599 275.593 197.809 276.232 189.961C277.638 172.527 267.67 156.768 265.944 139.774C265.435 134.912 265.852 127.455 271.566 125.814C276.611 124.378 282.777 126.91 287.538 128.366C297.926 131.546 311.809 135.494 317.228 122.678C321.193 113.294 320.116 101.794 318.401 92.0517C316.049 78.5819 311.605 65.5417 306.447 52.939C301.447 40.6338 295.657 28.6546 289.654 16.7779C282.084 1.71361 274.979 -13.6208 266.815 -28.3684C262.668 -35.8399 258.27 -43.1437 253.52 -50.252C252.243 -52.5845 248.761 -50.2571 250.27 -47.9992Z" fill="#DBDBDB"/>
<path d="M248.07 -52.376C239.85 -15.5887 222.109 18.4084 205.92 52.1345C197.44 69.7789 189.221 87.5718 180.454 105.086C171.204 123.568 161.777 141.966 152.835 160.606C147.942 170.772 143.198 181.041 138.723 191.411C136.491 196.573 134.323 201.772 132.249 206.99C130.091 212.384 128.649 217.945 126.537 223.348C125.583 225.841 129.323 227.697 130.304 225.186C132.008 220.74 133.145 216.109 134.867 211.692C136.729 206.939 138.655 202.224 140.656 197.499C144.658 188.049 148.883 178.693 153.257 169.438C162.18 150.529 171.681 131.879 181.042 113.202C190.162 95.0088 198.835 76.6298 207.602 58.2693C215.793 41.0993 224.255 24.0314 231.945 6.59223C240.19 -12.1862 247.663 -31.4567 252.133 -51.5428C252.78 -54.1931 248.661 -54.9891 248.07 -52.376Z" fill="#DBDBDB"/>
<path d="M170.767 187.859C169.789 180.124 169.016 172.334 168.437 164.534C167.774 155.702 167.166 146.712 167.878 137.888C168.042 135.843 165.772 134.497 164.241 136.125C154.088 146.863 142.334 155.929 132.366 166.825C130.547 168.807 133.721 171.565 135.54 169.583C145.507 158.687 157.262 149.622 167.415 138.884C166.206 138.28 164.968 137.696 163.778 137.12C163.029 146.13 163.544 155.222 164.226 164.203C164.814 172.198 165.597 180.184 166.603 188.142C166.923 190.791 171.106 190.536 170.767 187.859Z" fill="#DBDBDB"/>
<path d="M221.829 171.275C203.741 145.779 198.324 115.484 193.549 85.2439C193.371 84.0726 192.133 82.7627 190.804 83.3682C170.629 92.8598 150.044 101.375 129.803 110.709C127.36 111.818 128.667 115.824 131.138 114.696C151.379 105.363 171.964 96.8472 192.139 87.3556C191.227 86.7149 190.306 86.1207 189.394 85.4799C194.301 116.398 199.848 147.493 218.374 173.584C219.893 175.795 223.393 173.496 221.829 171.275Z" fill="#DBDBDB"/>
<path d="M249.942 110.827C233.448 87.8959 226.11 59.6106 219.09 32.6453C218.754 31.2975 217.005 30.8527 215.947 31.5602C197.588 43.5884 175.472 48.1262 157.123 60.1078C154.875 61.5694 157.176 65.0725 159.451 63.5922C177.782 51.5827 199.917 47.0728 218.276 35.0447C217.234 34.6923 216.174 34.312 215.132 33.9597C222.273 61.2875 229.76 89.9166 246.46 113.155C248.034 115.329 251.516 113.001 249.942 110.827Z" fill="#DBDBDB"/>
<path d="M269.652 62.0451C260.719 36.5597 248.489 12.4718 238.563 -12.6315C238.18 -13.626 236.989 -14.4431 235.902 -13.9587C216.878 -5.63963 195.229 -6.61556 176.55 2.76312C174.135 3.97387 176.492 7.43971 178.879 6.24757C197.158 -2.94481 218.557 -1.80131 237.219 -9.99922C236.317 -10.4447 235.461 -10.8809 234.558 -11.3264C244.494 13.7305 256.715 37.8649 265.647 63.3503C266.543 65.897 270.529 64.5639 269.652 62.0451Z" fill="#DBDBDB"/>
</svg>
