<svg width="218" height="259" viewBox="0 0 218 259" fill="none" xmlns="http://www.w3.org/2000/svg">
<path d="M81.6632 218.602C65.6375 225.322 47.1086 210.431 37.6463 198.823C32.7524 192.825 27.933 185.31 27.5382 177.375C27.3754 174.38 28.0564 171.384 29.9586 168.996C32.1716 166.245 36.6691 163.66 40.2257 163.877C44.4702 164.145 45.0804 169.823 45.5682 173.077C46.2272 177.42 46.4844 181.984 48.0255 186.118C51.212 194.634 62.1767 199.316 70.5523 195.651C78.8111 192.024 81.6809 181.506 78.3659 173.574C74.7768 164.955 66.8448 158.416 59.9653 152.433C53.3329 146.67 43.8442 140.456 41.0724 131.694C39.0587 125.252 40.3795 118.366 43.4417 112.476C43.9844 111.451 45.9334 106.82 47.5297 106.805C47.6206 106.818 48.6895 108.84 48.9504 109.423C52.1218 116.992 52.5201 126.418 58.0897 132.817C63.308 138.815 73.202 140.697 77.5838 133.004C82.0431 125.155 79.8943 116.379 77.0726 108.498C75.3483 103.69 73.1153 97.8184 75.6087 92.8757C77.0686 90.0086 83.1037 84.4657 86.8594 86.627C90.7712 88.866 89.1139 96.1677 92.1452 99.3282C97.5834 105.015 106.148 93.4786 107.124 89.0432C108.28 83.5962 106.592 77.8669 104.997 72.6692C103.14 66.6289 101.127 60.5111 100.489 54.1713C99.7855 47.313 101.445 40.9837 105.871 35.6111C109.56 31.1338 114.822 28.2498 120.243 26.2861C125.326 24.4136 131.695 22.8898 136.943 25.0496C141.698 27.0284 143.252 31.2018 141.212 35.6903C138.41 41.904 130.016 49.0573 132.72 56.5877C133.974 60.0613 137.758 62.8839 141.405 63.1783C145.429 63.4982 149.318 61.4194 152.714 59.5487C157.199 57.0545 161.475 54.0029 166.311 52.2344C171.537 50.3358 176.563 51.64 181.358 54.1893C191.052 59.3395 198.308 70.8846 191.622 81.2517C185.247 91.1257 172.771 89.8682 162.732 92.511C152.511 95.1928 135.516 109.331 149.71 118.276C155.117 121.68 161.545 123.424 167.533 125.531C173.196 127.508 180.028 129.55 184.347 133.967C188.106 137.814 187.149 144.492 182.366 147.194C177.129 150.156 169.531 147.571 164.258 145.982C151.686 142.248 134.132 133.281 121.496 141.204C113.293 146.347 110.851 156.982 113.507 165.913C116.528 176.062 126.669 183.701 137.224 179.307C142.125 177.28 146.295 173.658 151.458 172.278C156.283 170.989 162.749 172.266 166.546 175.646C172.503 180.878 167.382 189.078 162.81 193.245C156.322 199.177 147.788 201.468 139.294 199.247C132.879 197.542 122.031 192.627 116.764 199.167C110.85 206.486 118.003 213.156 122.675 218.364C125.798 221.861 126.546 225.569 122.933 229.177C119.761 232.357 114.855 232.376 110.7 231.667C102.612 230.262 94.231 226.187 87.7948 221.072C85.9874 219.622 83.5408 222.321 85.3741 223.784C92.0575 229.119 100.516 233.298 108.917 235.053C116.786 236.704 127.281 234.904 129.012 225.437C130.639 216.631 118.913 213.869 118.259 206.064C117.259 194.395 135.226 202.143 140.55 203.304C148.692 205.124 157.251 202.392 163.663 197.263C168.936 193.057 174.254 186.024 172.537 178.855C170.571 170.688 159.557 167.147 152.162 168.452C146.83 169.391 142.529 172.689 137.798 175.093C131.64 178.211 125.123 177.362 120.542 171.844C113.709 163.553 114.284 148.524 124.824 143.508C131.656 140.272 140.11 142.442 147.019 144.392C154.772 146.601 162.333 149.718 170.266 151.304C175.902 152.426 182.664 152.782 186.859 148.136C190.664 143.944 191.558 137.46 188.056 132.835C184.281 127.847 177.604 125.429 171.967 123.335C165.55 120.982 158.745 119.212 152.728 115.925C147.816 113.221 146.03 109.774 149.887 105.089C152.928 101.39 156.931 98.2352 161.47 96.6744C166.605 94.8926 172.095 94.6145 177.413 93.5716C187.649 91.5769 197.146 84.9412 197.821 73.6858C198.447 63.5716 190.756 54.8535 182.154 50.5709C177.788 48.3972 172.788 46.9114 167.911 47.9798C163.072 49.0352 158.718 51.7886 154.532 54.2696C150.851 56.4518 145.474 60.5418 140.878 59.4835C136.034 58.3995 135.024 53.8494 136.845 49.9317C139.841 43.4584 148.403 36.0976 145.153 28.2306C140.819 17.7196 126.445 19.9521 118.159 23.1765C107.5 27.324 98.2004 35.3858 96.8135 47.355C96.1266 53.3591 97.4125 59.374 98.9704 65.1682C100.659 71.4161 103.438 77.7536 103.765 84.2622C103.941 87.4906 103.261 90.681 101.047 93.1728C100.089 94.2501 97.2926 97.1315 95.5792 97.0555C93.7361 96.9797 93.5347 94.0625 93.1808 92.5588C91.9095 87.2311 89.8323 81.3726 83.0742 82.9616C78.4045 84.0687 73.8312 87.5225 71.9337 91.9849C69.9715 96.5122 70.9306 101.555 72.3299 106.105C73.8076 110.888 76.2453 115.501 76.4257 120.545C76.5776 124.473 76.0831 129.505 73.3778 132.593C69.9606 136.526 63.7245 133.745 60.7968 130.506C57.8432 127.255 56.6377 122.316 55.4342 118.22C54.3877 114.72 52.0962 100.369 45.6016 103.643C41.4015 105.761 38.9128 112.714 37.6635 116.851C36.0019 122.273 35.9118 128.186 37.8321 133.578C40.9282 142.275 49.8198 148.45 56.5302 154.252C63.5787 160.351 73.2125 167.576 75.6875 177.065C76.9446 181.9 75.2453 187.853 71.2422 190.943C66.4358 194.67 59.4895 193.445 55.0164 189.793C47.6176 183.746 51.0178 172.488 46.9633 164.674C43.0522 157.093 33.041 160.591 28.1592 165.381C23.3293 170.131 23.086 177.133 24.8395 183.316C29.4459 199.662 45.1326 214.595 60.5655 220.854C67.5805 223.7 75.5522 224.949 82.7223 221.946C84.9786 221.127 83.8286 217.705 81.6632 218.602Z" fill="#DCD3D7"/>
</svg>
