<svg width="180" height="174" viewBox="0 0 180 174" fill="none" xmlns="http://www.w3.org/2000/svg">
<path d="M113.332 59.8422C102.099 51.3434 88.6201 43.5808 74.319 42.531C60.755 41.5264 49.2556 48.407 42.7085 60.2489C36.7472 71.0257 34.5278 83.8779 33.6603 96.0723C32.692 109.704 33.4415 123.853 36.986 137.127C39.512 146.519 43.5324 156.582 52.6577 161.258C60.6218 165.354 69.9723 164.12 78.15 161.508C88.1213 158.336 97.3441 152.955 105.946 147.075C114.032 141.586 122.337 135.518 129.054 128.392C137.7 119.226 142.617 107.123 139.406 94.4758C135.707 79.9053 124.447 69.9195 114.194 59.7513C112.814 58.387 110.456 60.2978 111.845 61.6845C120.563 70.3172 130.099 78.5839 134.837 90.2534C138.934 100.309 137.834 110.974 131.879 119.981C126.434 128.172 118.178 134.351 110.372 140.17C102.758 145.823 94.7146 151.051 86.1006 155.063C78.3054 158.708 69.3467 161.829 60.5943 160.601C51.5509 159.316 45.8627 152.649 42.5595 144.488C37.9684 133.207 36.5071 120.555 36.3255 108.508C36.1393 96.0351 37.3483 83.1793 41.2659 71.3349C45.6177 58.1452 54.7014 46.4546 69.4505 45.5372C84.712 44.5782 99.7662 53.4302 111.548 62.3261C113.141 63.5147 114.903 61.0407 113.332 59.8422Z" fill="#D3CBCF"/>
<path d="M114.216 59.7414C111.514 57.2011 109.051 54.1257 108.462 50.3731C107.977 47.27 108.905 44.1781 110.339 41.4485C113.702 35.0729 119.282 30.0352 123.973 24.6721C126.42 21.8914 128.785 18.9868 130.367 15.5759C129.409 15.3346 128.43 15.1031 127.45 14.8717C124.38 29.9783 126.571 49.6672 111.705 58.936C110.067 59.9629 111.994 62.3141 113.642 61.3095C129.333 51.5112 127.225 31.1161 130.468 15.2092C130.833 13.4129 128.219 13.0287 127.542 14.4827C124.488 21.0147 118.474 26.0322 113.86 31.388C109.404 36.5655 104.596 42.9719 105.381 50.2512C105.873 54.7967 108.653 58.6406 111.877 61.6969C113.292 63.0192 115.65 61.1083 114.216 59.7414Z" fill="#D3CBCF"/>
<path d="M115.781 60.8088C124.249 53.3825 135.452 47.6787 146.959 50.3788C146.6 49.5756 146.241 48.7723 145.882 47.969C142.648 53.0288 137.166 56.4433 131.679 58.6014C126.193 60.7595 119.634 62.0046 113.928 59.8702C112.086 59.1944 111.017 62.0284 112.859 62.7042C119.197 65.0647 126.34 63.8797 132.496 61.5562C138.598 59.2302 144.782 55.3678 148.343 49.7334C148.993 48.6932 148.396 47.5948 147.266 47.3235C135.016 44.4467 122.842 50.5312 113.834 58.413C112.38 59.7324 114.317 62.1059 115.781 60.8088Z" fill="#D3CBCF"/>
<path d="M112.99 59.6737C96.1355 52.3763 89.7355 31.7043 98.0772 15.7405C97.213 15.8859 96.3487 16.0312 95.4967 16.1444C98.3052 19.2796 101.43 22.1128 104.217 25.2578C106.869 28.2219 109.644 31.6396 109.969 35.7512C110.13 37.7141 113.104 37.2412 112.976 35.2907C112.294 26.5197 103.234 20.2088 97.8349 14.1889C97.0021 13.2761 95.7839 13.5798 95.2544 14.5928C86.1346 32.0825 93.6901 54.5671 111.933 62.4756C113.726 63.2802 114.796 60.4462 112.99 59.6737Z" fill="#D3CBCF"/>
<path d="M68.6304 52.7305C66.9408 54.7709 66.4124 57.3899 65.812 59.9071C65.7325 60.2639 65.9299 60.7647 66.158 61.0375C66.3862 61.3104 66.7892 61.5586 67.1688 61.5763C67.5805 61.6064 67.9965 61.5275 68.2907 61.2354C68.617 60.9557 68.7385 60.6336 68.8201 60.2223C68.8058 60.3091 68.7164 60.6435 68.8201 60.2223C68.8345 60.1356 68.8709 60.039 68.8852 59.9523C68.9239 59.8011 68.9525 59.6277 68.9912 59.4766C69.0684 59.1743 69.1357 58.8497 69.2351 58.5376C69.3875 57.9875 69.5399 57.4375 69.7243 56.8999C69.7994 56.6522 69.9066 56.4169 70.0138 56.1816C70.0724 56.075 70.121 55.9462 70.1796 55.8397C70.2039 55.7753 70.2282 55.7109 70.2625 55.6688C70.3918 55.4236 70.0746 56.0205 70.2039 55.7753C70.4725 55.3072 70.7611 54.8837 71.0817 54.4726C71.5838 53.8734 71.3783 52.7605 70.7107 52.3361C70.011 51.8992 69.1568 52.0669 68.6304 52.7305Z" fill="#D3CBCF"/>
<path d="M94.2484 67.5161C93.9085 68.9531 93.3217 70.3131 92.6608 71.6259C92.6144 71.7002 92.5901 71.7646 92.5436 71.8389C92.6486 71.6581 92.6022 71.7324 92.5315 71.8711C92.4486 72.042 92.3557 72.1906 92.2728 72.3615C92.0971 72.681 91.8992 73.0104 91.7135 73.3076C91.3177 73.9664 90.8998 74.6352 90.4819 75.3039C90.064 75.9726 90.1112 76.9688 90.8529 77.4404C91.4984 77.8747 92.511 77.8237 92.9753 77.0807C94.6247 74.4158 96.3527 71.689 97.0955 68.5994C97.1992 68.1782 97.2344 67.8412 97.0549 67.4395C96.9053 67.1048 96.5609 66.7501 96.2177 66.6358C95.5093 66.417 94.4438 66.7059 94.2484 67.5161Z" fill="#D3CBCF"/>
<path d="M121.933 90.962C121.91 91.2668 121.887 91.5716 121.864 91.8764C121.847 92.0177 121.831 92.1589 121.792 92.31C121.778 92.3968 121.753 92.4612 121.739 92.5479C121.737 92.6024 121.662 92.8502 121.727 92.5801C121.792 92.31 121.717 92.5578 121.715 92.6123C121.7 92.699 121.676 92.7634 121.662 92.8502C121.623 93.0013 121.562 93.1623 121.524 93.3135C121.436 93.5934 121.317 93.8609 121.198 94.1285C121.127 94.2672 121.078 94.396 121.008 94.5347C120.89 94.7477 121.008 94.5347 121.044 94.4381C120.998 94.5124 120.973 94.5768 120.927 94.6511C120.775 94.9062 120.602 95.1712 120.428 95.4362C120.255 95.7012 120.049 95.9538 119.866 96.1965C119.741 96.3326 119.638 96.4589 119.513 96.5951C119.422 96.6892 119.221 96.8327 119.535 96.5852C119.456 96.6471 119.41 96.7214 119.331 96.7833C119.037 97.0754 118.829 97.3825 118.802 97.7963C118.755 98.1655 118.888 98.6415 119.148 98.9267C119.658 99.4749 120.68 99.7411 121.291 99.1469C122.401 98.008 123.331 96.7624 124.008 95.3084C124.591 94.0574 124.906 92.6848 124.961 91.3219C125.003 90.5264 124.472 89.6932 123.616 89.6205C122.825 89.5726 121.978 90.1121 121.933 90.962Z" fill="#D3CBCF"/>
<path d="M73.3196 77.0587C72.2476 79.4119 71.1613 81.8519 71.0446 84.501C71.002 85.2964 71.5337 86.1296 72.3892 86.2023C73.1584 86.2601 74.0279 85.7108 74.0727 84.8608C74.0867 84.2388 74.187 83.6317 74.3095 83.0148C74.3116 82.9602 74.3359 82.8958 74.3602 82.8314C74.3007 83.2328 74.3216 82.9826 74.3359 82.8958C74.3746 82.7447 74.4132 82.5936 74.4519 82.4424C74.5291 82.1402 74.6385 81.8503 74.7257 81.5704C75.1311 80.3986 75.6428 79.2864 76.1545 78.1742C76.4982 77.4583 76.0172 76.4418 75.2767 76.2106C74.452 75.9099 73.6876 76.2784 73.3196 77.0587Z" fill="#D3CBCF"/>
<path d="M96.1731 93.3209C95.6378 95.5681 94.5967 97.6934 93.622 99.789C93.2882 100.527 93.7592 101.521 94.4997 101.753C95.3144 102.031 96.101 101.653 96.4469 100.882C97.3995 98.7965 98.4406 96.6712 98.998 94.4141C99.1018 93.9929 99.137 93.6559 98.9574 93.2543C98.8078 92.9196 98.4634 92.5648 98.1203 92.4505C97.745 92.3238 97.3112 92.3035 96.9671 92.4841C96.6352 92.6324 96.2647 92.9319 96.1731 93.3209Z" fill="#D3CBCF"/>
<path d="M52.7708 87.1548C51.8184 91.1413 50.4143 95.0084 49.4618 98.9949C49.2786 99.7729 49.5028 100.69 50.3396 100.958C51.0358 101.209 52.1014 100.921 52.2868 100.088C53.2392 96.1016 54.6433 92.2345 55.5958 88.248C55.779 87.47 55.5548 86.5529 54.718 86.2844C54.0317 86.0557 52.9662 86.3446 52.7708 87.1548Z" fill="#D3CBCF"/>
<path d="M75.5325 103.806C75.058 105.892 75.0151 108.053 74.5406 110.139C74.4612 110.496 74.6585 110.997 74.8866 111.27C75.1148 111.542 75.5178 111.791 75.8974 111.808C76.3091 111.838 76.7251 111.76 77.0193 111.467C77.3456 111.188 77.4671 110.866 77.5488 110.454C78.0233 108.368 78.0661 106.207 78.5407 104.121C78.6201 103.764 78.4228 103.264 78.1946 102.991C77.9665 102.718 77.5635 102.47 77.1839 102.452C76.7722 102.422 76.3561 102.501 76.062 102.793C75.7457 103.095 75.6141 103.395 75.5325 103.806Z" fill="#D3CBCF"/>
<path d="M106.807 116.812C105.169 119.445 103.755 122.219 101.895 124.711C101.413 125.355 101.588 126.4 102.266 126.847C102.976 127.306 103.882 127.196 104.388 126.487C106.238 123.974 107.663 121.222 109.3 118.589C109.718 117.921 109.671 116.924 108.929 116.453C108.271 116.051 107.259 116.102 106.807 116.812Z" fill="#D3CBCF"/>
<path d="M60.5542 115.91C59.913 118.632 58.8003 121.191 58.1369 123.924C58.0332 124.345 57.998 124.682 58.1775 125.084C58.3271 125.419 58.6715 125.773 59.0147 125.888C59.7109 126.139 60.7765 125.85 60.9619 125.017C61.6031 122.294 62.7158 119.735 63.3792 117.003C63.4829 116.581 63.5181 116.245 63.3386 115.843C63.189 115.508 62.8445 115.153 62.5014 115.039C61.8151 114.81 60.7496 115.099 60.5542 115.91Z" fill="#D3CBCF"/>
<path d="M85.9366 125.713C84.7474 128.28 83.6126 130.848 82.5618 133.487C82.2823 134.227 82.667 135.207 83.4396 135.45C84.2222 135.716 85.073 135.363 85.3868 134.58C86.4154 131.951 87.5724 129.373 88.7615 126.807C89.0952 126.068 88.6242 125.074 87.8837 124.843C87.069 124.565 86.2824 124.943 85.9366 125.713Z" fill="#D3CBCF"/>
<path d="M62.1011 141.107C61.0535 143.396 60.018 145.652 58.9604 147.919C58.6266 148.657 59.0976 149.651 59.8381 149.883C60.6528 150.161 61.4394 149.782 61.7853 149.012C62.8429 146.746 63.8684 144.467 64.926 142.2C65.2598 141.462 64.7888 140.468 64.0483 140.237C63.2557 139.948 62.4691 140.327 62.1011 141.107Z" fill="#D3CBCF"/>
<path d="M47.5645 132.344C47.5505 132.966 47.4502 133.573 47.3277 134.19C47.3255 134.245 47.3012 134.309 47.2769 134.374C47.3364 133.972 47.3156 134.223 47.3012 134.309C47.2626 134.46 47.224 134.612 47.1853 134.763C47.1081 135.065 46.9987 135.355 46.9114 135.635C46.5061 136.807 45.9944 137.919 45.4827 139.031C45.149 139.769 45.62 140.763 46.3605 140.995C47.1752 141.273 47.9618 140.895 48.3077 140.124C49.3796 137.771 50.4659 135.331 50.5826 132.682C50.6252 131.886 50.0935 131.053 49.238 130.981C48.4566 130.955 47.5872 131.504 47.5645 132.344Z" fill="#D3CBCF"/>
<path d="M84.3417 143.052C84.1463 143.862 83.8647 144.657 83.4546 145.403C83.5131 145.296 83.5618 145.167 83.6425 145.051C83.1495 145.967 82.5181 146.812 81.8347 147.599C81.6069 147.862 81.511 148.36 81.5621 148.712C81.6232 149.086 81.8669 149.512 82.1736 149.723C82.5024 149.924 82.8877 150.074 83.2816 150.005C83.6977 149.926 83.9996 149.71 84.2838 149.396C85.5843 147.851 86.6743 146.132 87.1445 144.155C87.2483 143.734 87.2835 143.397 87.1039 142.995C86.9543 142.66 86.6099 142.306 86.2667 142.191C85.8915 142.064 85.4577 142.044 85.1136 142.225C84.8038 142.363 84.4333 142.663 84.3417 143.052Z" fill="#D3CBCF"/>
<path d="M127.324 108.605C126.135 111.171 124.647 113.603 123.949 116.378C123.845 116.799 123.81 117.136 123.99 117.538C124.139 117.873 124.484 118.227 124.827 118.342C125.523 118.593 126.588 118.304 126.774 117.471C127.439 114.684 128.959 112.264 130.149 109.698C130.492 108.982 130.011 107.965 129.271 107.734C128.446 107.434 127.692 107.824 127.324 108.605Z" fill="#D3CBCF"/>
<path d="M50.2418 66.4121C49.1275 68.1953 48.2434 70.1968 47.7368 72.2706C47.6331 72.6918 47.5979 73.0288 47.7774 73.4304C47.927 73.7651 48.2714 74.1199 48.6146 74.2342C48.9898 74.3609 49.4236 74.3812 49.7677 74.2006C50.0896 74.0299 50.4602 73.7304 50.5617 73.3638C50.9525 71.7434 51.59 70.2001 52.3759 68.7511C52.3173 68.8576 52.2687 68.9865 52.188 69.1029C52.3416 68.7932 52.5052 68.5059 52.691 68.2087C52.911 67.8694 53.0125 67.5027 52.9636 67.0963C52.9025 66.722 52.6587 66.2955 52.352 66.0846C51.7066 65.6503 50.694 65.7013 50.2418 66.4121Z" fill="#D3CBCF"/>
<path d="M113.591 58.5215C115.254 53.8691 116.834 49.1472 118.915 44.6563C119.249 43.9181 118.765 42.9561 118.037 42.6927C117.235 42.3821 116.424 42.8249 116.09 43.5631C114.019 48.0764 112.452 52.7661 110.776 57.4507C110.506 58.2137 110.883 59.1161 111.654 59.4143C112.414 59.6901 113.331 59.3069 113.591 58.5215Z" fill="#D3CBCF"/>
</svg>
